Coordinates
version=1
nRows=14
nColumns=36
inDegrees=yes

Units are S.I. units (second, meters, Newtons, ...)
If the header above contains a line with 'inDegrees', this indicates whether rotational values are in degrees (yes) or radians (no).

endheader
time	pelvis_tilt	pelvis_list	pelvis_rotation	pelvis_tx	pelvis_ty	pelvis_tz	hip_flexion_r	hip_adduction_r	hip_rotation_r	knee_angle_r	knee_angle_r_beta	ankle_angle_r	subtalar_angle_r	mtp_angle_r	hip_flexion_l	hip_adduction_l	hip_rotation_l	knee_angle_l	knee_angle_l_beta	ankle_angle_l	subtalar_angle_l	mtp_angle_l	lumbar_extension	lumbar_bending	lumbar_rotation	arm_flex_r	arm_add_r	arm_rot_r	elbow_flex_r	pro_sup_r	arm_flex_l	arm_add_l	arm_rot_l	elbow_flex_l	pro_sup_l
      1.71000000	    -22.77203243	     -3.02145302	     -8.83038003	     -0.35009372	      0.62961592	     -0.53543730	    104.70772654	      0.59346324	      0.45747290	    117.42381724	      2.04943223	     27.88166406	     -2.01070956	     -7.28177993	    103.13631575	    -21.37320275	     22.05672931	    118.95519607	      2.07615983	     23.06067854	    -22.71447430	     -7.28177993	    -38.99478914	      2.30643181	     21.64435182	    110.83437562	    -24.94167080	     40.34526734	     87.93810903	    111.55982632	     85.01793546	    -27.01015987	     19.47701675	    114.40185049	    106.67436945
      1.72000000	    -22.77935330	     -3.24978799	     -8.61221214	     -0.34743617	      0.62435800	     -0.53608474	    105.11737831	      0.36827246	      0.46312687	    118.28380562	      2.06444186	     27.89356215	     -2.07366710	     -7.28420626	    103.65328078	    -21.00049612	     22.51398476	    119.76154064	      2.09023320	     23.14970077	    -23.00299757	     -7.28420626	    -39.70945304	      2.46971711	     21.77471973	    112.28781302	    -24.20393534	     40.65919965	     87.76075746	    111.52701860	     86.65492340	    -26.24591875	     19.85946877	    113.77541113	    106.65802390
      1.73000000	    -22.78151806	     -3.45708893	     -8.38324657	     -0.34471325	      0.62015207	     -0.53671371	    105.44274416	      0.15618301	      0.52247607	    119.04435404	      2.07771593	     27.83827097	     -2.08221745	     -7.28627229	    104.01785900	    -20.68373835	     22.90459205	    120.40565051	      2.10147504	     23.26552116	    -23.17144732	     -7.28627229	    -40.35354649	      2.64253085	     21.87250750	    113.45965140	    -23.53303198	     40.93055018	     87.66995581	    111.52131373	     88.04929384	    -25.56513067	     20.22737225	    113.22995314	    106.64922944
      1.74000000	    -22.90258252	     -3.61392641	     -8.21465915	     -0.34196603	      0.61697001	     -0.53713370	    105.77641816	      0.02187172	      0.54638154	    119.63743795	      2.08806720	     27.81277742	     -2.13233661	     -7.28735695	    104.33436364	    -20.49307608	     23.20949971	    120.85828965	      2.10937508	     23.39482502	    -23.24106608	     -7.28735695	    -40.79498636	      2.76197765	     21.91946515	    114.24429830	    -22.83658240	     41.01095244	     87.75017974	    111.52907017	     89.18794070	    -24.94402338	     20.38345533	    112.85707841	    106.64209063
      1.75000000	    -22.96448495	     -3.81251013	     -8.05359226	     -0.33917890	      0.61488033	     -0.53730947	    105.92390405	     -0.08747433	      0.47957147	    120.12103696	      2.09650760	     27.76740813	     -2.20600856	     -7.28849832	    104.48187770	    -20.38484348	     23.52253254	    121.18217415	      2.11502793	     23.54449843	    -23.21942803	     -7.28849832	    -41.18000198	      2.89283015	     22.01335533	    114.75064177	    -22.21998809	     40.98439927	     87.74458246	    111.50695384	     90.17900875	    -24.32657738	     20.69838073	    112.38567907	    106.65292324
      1.76000000	    -22.95658376	     -4.01312180	     -7.97970146	     -0.33632649	      0.61400131	     -0.53712092	    105.87005875	     -0.09760930	      0.36963661	    120.46227732	      2.10246336	     27.67692819	     -2.33995115	     -7.29130056	    104.44341863	    -20.45193769	     23.81030901	    121.39836232	      2.11880113	     23.84587813	    -22.91429590	     -7.29130056	    -41.50534638	      2.89385118	     22.20865436	    114.90970682	    -21.80632002	     40.74044847	     87.80837649	    111.36868871	     91.11530922	    -23.69393318	     21.35174011	    111.76871359	    106.74836287
      1.77000000	    -23.15583709	     -4.09591684	     -7.88392359	     -0.33342361	      0.61399994	     -0.53696274	    105.92003997	     -0.13422765	      0.36505117	    120.65962541	      2.10590774	     27.66281470	     -2.34584745	     -7.29157008	    104.47615625	    -20.53418028	     23.85549054	    121.43759826	      2.11948593	     23.89148158	    -22.89258408	     -7.29157008	    -41.58213065	      2.95083541	     22.19330326	    114.94100930	    -21.27650184	     40.81574441	     87.95661539	    111.36339783	     91.48560452	    -23.26114216	     21.51119334	    111.70321083	    106.76043745
      1.78000000	    -23.29639988	     -4.22950128	     -7.63646048	     -0.33063522	      0.61484143	     -0.53672300	    105.80616142	     -0.28472490	      0.33552854	    120.75626504	      2.10759442	     27.55147766	     -2.40205625	     -7.29810493	    104.41948433	    -20.52134849	     23.91044388	    121.38264021	      2.11852673	     24.50771025	    -22.18256411	     -7.29810493	    -41.59438733	      2.94216028	     22.28068296	    114.61101029	    -21.25511076	     40.38967001	     88.47109241	    111.00243323	     92.37066678	    -22.60621593	     22.45011426	    110.90172009	    107.00732784
      1.79000000	    -23.57259713	     -4.38607742	     -7.44250834	     -0.32778990	      0.61663615	     -0.53646266	    105.68819866	     -0.40836318	      0.24575529	    120.68274420	      2.10631124	     27.48033882	     -2.35007505	     -7.29927477	    104.44062127	    -20.56111596	     23.90720505	    121.17895981	      2.11497183	     24.52878292	    -22.08706840	     -7.29927477	    -41.46880513	      3.12586564	     22.22811781	    114.26542336	    -20.86963731	     40.36689729	     88.76201553	    110.95896720	     92.65423106	    -22.35295138	     22.83376640	    110.64473212	    107.06416235
      1.80000000	    -23.82395627	     -4.47091855	     -7.33687579	     -0.32493396	      0.61959417	     -0.53592753	    105.46980743	     -0.38129571	      0.21165594	    120.48872427	      2.10292495	     27.43222383	     -2.31211359	     -7.29956155	    104.29696953	    -20.71486524	     23.77241812	    120.86230588	      2.10944518	     24.51262888	    -22.03227804	     -7.29956155	    -41.35522818	      3.20716136	     22.20480982	    113.95845383	    -20.50273402	     40.48721680	     88.99019058	    110.96397218	     92.74341371	    -22.07967892	     23.06347984	    110.63385904	    107.09357497
      1.81000000	    -24.19255609	     -4.37526292	     -7.23660591	     -0.32205685	      0.62354402	     -0.53504357	    105.33505946	     -0.26556590	      0.33890547	    120.17793775	      2.09750070	     27.11991104	     -2.25005219	     -7.30282629	    104.07061239	    -20.89557096	     23.36213162	    120.36909052	      2.10083695	     24.48917240	    -22.00230828	     -7.30282629	    -40.91344227	      2.94029409	     22.02918794	    112.72824943	    -20.36518922	     39.44500794	     89.96720387	    110.81066571	     93.07078496	    -21.79208973	     24.03003664	    110.31665566	    107.30721150
      1.82000000	    -24.42683845	     -4.48157209	     -7.11388669	     -0.31925482	      0.62870583	     -0.53432255	    104.91282548	     -0.16017653	      0.28010513	    119.72416455	      2.08958087	     27.03526877	     -2.19875503	     -7.30307116	    103.69545207	    -21.02114105	     23.10131395	    119.77148279	      2.09040672	     24.44139630	    -21.93347268	     -7.30307116	    -40.75357361	      3.05435732	     21.98733961	    112.29866506	    -20.04539891	     39.64134664	     90.18803389	    110.82140142	     93.01451775	    -21.57201628	     24.22233903	    110.34335550	    107.33459081
      1.83000000	    -24.68868204	     -4.29476620	     -6.85710554	     -0.31622831	      0.63466590	     -0.53372091	    104.54500784	     -0.14891967	      0.55254307	    119.21121470	      2.08062820	     26.38961778	     -2.28589297	     -7.30631434	    103.11301331	    -21.02227625	     22.36604070	    119.06337595	      2.07804793	     24.23131289	    -22.22013036	     -7.30631434	    -40.32908084	      2.84417744	     21.52189677	    110.92528876	    -19.79547460	     38.58253456	     91.05110685	    110.62363532	     92.98417634	    -21.48838898	     24.89813416	    110.27511987	    107.55213219
      1.84000000	    -24.91564242	     -4.41206226	     -6.61685616	     -0.31321847	      0.64142388	     -0.53309525	    103.98768227	     -0.10338511	      0.53420064	    118.60884156	      2.07011481	     26.10582047	     -2.22789592	     -7.30714162	    102.56805242	    -20.97753424	     21.98867650	    118.28084266	      2.06439015	     24.12175037	    -22.27231243	     -7.30714162	    -40.02216388	      3.04235317	     21.37351215	    110.15903095	    -19.61843848	     38.66585584	     91.50754146	    110.61370268	     92.61607779	    -21.45016942	     25.12817692	    110.39444535	    107.62867518
